<svg width="31" height="32" viewBox="0 0 31 32" fill="none" xmlns="http://www.w3.org/2000/svg">
<g clip-path="url(#clip0_1306_72)">
<path d="M17.0416 0.632949C18.1361 0.628749 19.2307 0.63975 20.325 0.665948L20.6159 0.676448C20.9519 0.688447 21.2834 0.703447 21.6839 0.721446C23.2799 0.796444 24.3688 1.04844 25.3243 1.41892C26.3143 1.79991 27.1482 2.31589 27.9822 3.14986C28.7447 3.89925 29.3349 4.80573 29.7116 5.80627C30.0821 6.76174 30.3341 7.8522 30.4091 9.44815C30.4271 9.84714 30.4421 10.1801 30.4541 10.5161L30.4631 10.8071C30.4898 11.9009 30.5013 12.9949 30.4976 14.089L30.4991 15.208V17.1729C30.5028 18.2675 30.4913 19.362 30.4646 20.4563L30.4556 20.7473C30.4436 21.0833 30.4286 21.4147 30.4106 21.8152C30.3356 23.4112 30.0806 24.5001 29.7116 25.4556C29.3361 26.4572 28.7458 27.3644 27.9822 28.1135C27.2322 28.876 26.3252 29.4661 25.3243 29.843C24.3688 30.2134 23.2799 30.4654 21.6839 30.5404C21.2834 30.5584 20.9519 30.5734 20.6159 30.5854L20.325 30.5944C19.2307 30.6211 18.1361 30.6326 17.0416 30.6289L15.9226 30.6304H13.9592C12.8646 30.6341 11.77 30.6226 10.6758 30.5959L10.3848 30.5869C10.0287 30.574 9.67273 30.559 9.31683 30.5419C7.72089 30.4669 6.63192 30.2119 5.67496 29.843C4.67402 29.467 3.76738 28.8767 3.01855 28.1135C2.25514 27.364 1.66443 26.4569 1.28761 25.4556C0.917119 24.5001 0.665127 23.4112 0.59013 21.8152C0.573425 21.4593 0.558425 21.1033 0.545131 20.7473L0.537632 20.4563C0.509978 19.362 0.497477 18.2675 0.500133 17.1729V14.089C0.495947 12.9949 0.506948 11.9009 0.533132 10.8071L0.543632 10.5161C0.555631 10.1801 0.570631 9.84714 0.58863 9.44815C0.663627 7.8507 0.915619 6.76324 1.28611 5.80627C1.66315 4.80524 2.25502 3.89901 3.02005 3.15136C3.76836 2.38752 4.67443 1.79627 5.67496 1.41892C6.63192 1.04844 7.71939 0.796444 9.31683 0.721446L10.3848 0.676448L10.6758 0.668948C11.7695 0.641308 12.8636 0.628807 13.9577 0.631449L17.0416 0.632949ZM15.4996 8.13269C14.5059 8.11864 13.5193 8.30222 12.5972 8.67278C11.675 9.04333 10.8358 9.59346 10.1281 10.2912C9.42039 10.9889 8.85845 11.8204 8.47489 12.7372C8.09133 13.654 7.89382 14.6379 7.89382 15.6317C7.89382 16.6255 8.09133 17.6094 8.47489 18.5262C8.85845 19.443 9.42039 20.2744 10.1281 20.9722C10.8358 21.6699 11.675 22.22 12.5972 22.5906C13.5193 22.9612 14.5059 23.1447 15.4996 23.1307C17.4887 23.1307 19.3963 22.3405 20.8027 20.9341C22.2092 19.5276 22.9994 17.62 22.9994 15.6309C22.9994 13.6419 22.2092 11.7343 20.8027 10.3278C19.3963 8.92134 17.4887 8.13269 15.4996 8.13269ZM15.4996 11.1326C16.0974 11.1216 16.6913 11.2298 17.2468 11.4509C17.8022 11.672 18.308 12.0016 18.7347 12.4204C19.1613 12.8392 19.5002 13.3388 19.7316 13.89C19.963 14.4413 20.0823 15.0331 20.0824 15.6309C20.0825 16.2288 19.9634 16.8206 19.7322 17.372C19.501 17.9233 19.1623 18.423 18.7358 18.8419C18.3092 19.2609 17.8035 19.5906 17.2481 19.8119C16.6928 20.0332 16.0989 20.1416 15.5011 20.1308C14.3077 20.1308 13.1631 19.6567 12.3192 18.8128C11.4754 17.9689 11.0013 16.8244 11.0013 15.6309C11.0013 14.4375 11.4754 13.293 12.3192 12.4491C13.1631 11.6052 14.3077 11.1311 15.5011 11.1311L15.4996 11.1326ZM23.3744 5.88277C22.8905 5.90214 22.4328 6.10799 22.0973 6.45721C21.7618 6.80643 21.5744 7.27192 21.5744 7.75621C21.5744 8.24049 21.7618 8.70599 22.0973 9.05521C22.4328 9.40442 22.8905 9.61028 23.3744 9.62964C23.8716 9.62964 24.3485 9.43211 24.7001 9.08049C25.0518 8.72887 25.2493 8.25197 25.2493 7.75471C25.2493 7.25744 25.0518 6.78055 24.7001 6.42893C24.3485 6.07731 23.8716 5.87977 23.3744 5.87977V5.88277Z" fill="white"/>
</g>
<defs>
<clipPath id="clip0_1306_72">
<rect width="31" height="31" fill="white" transform="translate(0 0.131348)"/>
</clipPath>
</defs>
</svg>
