<svg width="173" height="63" viewBox="0 0 173 63" fill="none" xmlns="http://www.w3.org/2000/svg">
<path d="M154.526 6.38033C154.488 6.38799 154.448 6.38799 154.41 6.38033C149.841 4.82082 150.766 0.324476 150.766 0.280751C150.78 0.228084 150.805 0.178866 150.839 0.136217C150.872 0.0935673 150.915 0.0584061 150.963 0.03297C151.011 0.0112395 151.063 0 151.116 0C151.169 0 151.221 0.0112395 151.269 0.03297C152.428 0.53809 153.399 1.39438 154.045 2.48096C154.69 3.56754 154.979 4.82954 154.869 6.08883C154.864 6.14285 154.847 6.19495 154.817 6.24064C154.788 6.28634 154.748 6.32426 154.701 6.35118C154.647 6.37794 154.586 6.38808 154.526 6.38033ZM151.429 0.885599C151.317 1.85041 151.526 2.82526 152.024 3.65919C152.522 4.49311 153.281 5.13959 154.184 5.49855C154.194 4.55048 153.943 3.61796 153.457 2.80393C152.971 1.9899 152.269 1.32603 151.429 0.885599Z" fill="#771010"/>
<path d="M155.182 10.7962C151.633 10.7962 150.169 7.46587 150.154 7.42943C150.133 7.37998 150.122 7.32665 150.122 7.27274C150.122 7.21884 150.133 7.16551 150.154 7.11607C150.18 7.06978 150.216 7.02957 150.258 6.99814C150.301 6.96672 150.35 6.94481 150.402 6.93388C151.727 6.65291 153.106 6.79509 154.346 7.34034C155.585 7.88559 156.622 8.80639 157.31 9.97274C157.334 10.0217 157.346 10.0752 157.346 10.1294C157.346 10.1836 157.334 10.2372 157.31 10.2861C157.289 10.3362 157.258 10.3812 157.217 10.4177C157.177 10.4542 157.129 10.4814 157.077 10.4974C156.463 10.6883 155.825 10.789 155.182 10.7962ZM151.043 7.59704C151.546 8.53559 152.349 9.2783 153.324 9.70635C154.3 10.1344 155.39 10.2231 156.421 9.95817C155.834 9.10245 155.019 8.42792 154.069 8.0107C153.119 7.59349 152.071 7.45022 151.043 7.59704Z" fill="#771010"/>
<path d="M157.143 10.3736C157.106 10.3805 157.069 10.3805 157.033 10.3736C156.982 10.3585 156.934 10.3316 156.895 10.2949C156.856 10.2582 156.826 10.2127 156.807 10.1622C156.345 8.88131 156.299 7.48705 156.676 6.17839C157.053 4.86974 157.833 3.71356 158.906 2.87481C158.949 2.84217 158.999 2.81931 159.052 2.80782C159.104 2.79633 159.159 2.79648 159.212 2.80828C159.265 2.82007 159.314 2.84321 159.357 2.8761C159.4 2.90898 159.435 2.95082 159.46 2.99869C159.46 3.04242 161.646 7.45131 157.347 10.2861C157.29 10.3362 157.218 10.3668 157.143 10.3736ZM158.986 3.77844C158.214 4.47202 157.65 5.36753 157.359 6.36408C157.068 7.36063 157.061 8.41864 157.339 9.41892C158.206 8.7988 158.839 7.90591 159.137 6.88324C159.436 5.86057 159.383 4.76728 158.986 3.77844Z" fill="#771010"/>
<path d="M157.5 16.3782C153.389 16.3782 151.67 12.5304 151.67 12.4794C151.648 12.4313 151.637 12.3791 151.637 12.3263C151.637 12.2736 151.648 12.2214 151.67 12.1733C151.693 12.1244 151.728 12.0817 151.771 12.0487C151.814 12.0158 151.864 11.9936 151.917 11.9838C157.31 10.8397 159.897 15.4599 159.934 15.5037C159.957 15.5526 159.969 15.6061 159.969 15.6603C159.969 15.7146 159.957 15.7681 159.934 15.817C159.913 15.8677 159.882 15.9131 159.842 15.9498C159.801 15.9864 159.753 16.0133 159.7 16.0284C158.987 16.2493 158.246 16.3671 157.5 16.3782ZM152.551 12.6106C153.149 13.7529 154.117 14.6576 155.298 15.1756C156.478 15.6935 157.799 15.7938 159.044 15.4599C158.349 14.4127 157.367 13.5873 156.216 13.0821C155.065 12.577 153.793 12.4133 152.551 12.6106Z" fill="#771010"/>
<path d="M159.788 15.8828H159.679C159.627 15.8651 159.579 15.8365 159.539 15.7988C159.498 15.7611 159.467 15.7152 159.446 15.6642C159.446 15.6132 157.544 10.665 161.887 7.26178C161.93 7.22968 161.98 7.20722 162.033 7.19591C162.086 7.1846 162.14 7.1847 162.193 7.1962C162.245 7.20748 162.293 7.2304 162.335 7.26323C162.377 7.29605 162.41 7.33793 162.433 7.38568C162.433 7.43669 164.984 12.5379 159.985 15.8391C159.925 15.8719 159.856 15.887 159.788 15.8828ZM161.974 8.12899C161.027 8.95435 160.336 10.0347 159.984 11.2413C159.633 12.448 159.636 13.7303 159.992 14.9355C161.049 14.1967 161.821 13.1187 162.18 11.8805C162.539 10.6424 162.464 9.31854 161.967 8.12899H161.974Z" fill="#771010"/>
<path d="M159.766 22.6025C155.036 22.6025 153.091 18.179 153.069 18.128C153.046 18.0791 153.033 18.0256 153.033 17.9714C153.033 17.9171 153.046 17.8636 153.069 17.8147C153.094 17.7678 153.129 17.7271 153.172 17.6955C153.215 17.664 153.264 17.6425 153.317 17.6325C159.526 16.3135 162.492 21.626 162.521 21.6843C162.548 21.7309 162.565 21.7832 162.569 21.8373C162.573 21.8913 162.565 21.9456 162.544 21.9957C162.524 22.0459 162.492 22.0906 162.451 22.1264C162.41 22.1621 162.362 22.1879 162.309 22.2017C161.486 22.4601 160.629 22.5951 159.766 22.6025ZM153.936 18.2301C154.63 19.6 155.778 20.6863 157.185 21.3031C158.591 21.9199 160.168 22.0289 161.646 21.6114C160.825 20.3657 159.661 19.3851 158.293 18.7887C156.926 18.1923 155.415 18.0059 153.943 18.2519L153.936 18.2301Z" fill="#771010"/>
<path d="M162.411 22.0339C162.375 22.0408 162.338 22.0408 162.302 22.0339C162.25 22.0189 162.203 21.992 162.164 21.9552C162.125 21.9185 162.095 21.8731 162.076 21.8226C162.076 21.7643 159.89 16.0728 164.882 12.1595C164.923 12.1263 164.971 12.1026 165.023 12.09C165.075 12.0774 165.128 12.0762 165.181 12.0866C165.234 12.0991 165.284 12.1233 165.326 12.1573C165.369 12.1913 165.404 12.2343 165.428 12.2834C165.428 12.3416 168.343 18.2008 162.615 21.9902C162.553 22.0248 162.482 22.04 162.411 22.0339ZM164.962 13.0121C163.826 13.9827 162.998 15.2638 162.58 16.6981C162.162 18.1325 162.172 19.6577 162.608 21.0866C163.877 20.2232 164.805 18.9453 165.235 17.472C165.664 15.9988 165.568 14.422 164.962 13.0121Z" fill="#771010"/>
<path d="M162.659 30.0643C156.742 30.0643 155.066 24.3873 155.051 24.3218C155.036 24.2703 155.032 24.2158 155.041 24.1628C155.05 24.1097 155.071 24.0593 155.102 24.0157C155.134 23.9723 155.174 23.9361 155.22 23.9097C155.267 23.8833 155.319 23.8673 155.372 23.8627C162.149 23.3088 164.591 29.372 164.612 29.4303C164.633 29.4803 164.642 29.5343 164.638 29.5882C164.635 29.6422 164.619 29.6946 164.593 29.7416C164.566 29.7886 164.529 29.829 164.484 29.8596C164.44 29.8903 164.389 29.9104 164.335 29.9185C163.782 30.0146 163.221 30.0633 162.659 30.0643ZM155.904 24.5622C156.455 26.1395 157.541 27.4741 158.973 28.3341C160.406 29.194 162.094 29.5252 163.745 29.2699C163.04 27.8059 161.922 26.5801 160.528 25.7436C159.135 24.9071 157.528 24.4965 155.904 24.5622Z" fill="#771010"/>
<path d="M164.51 29.7509C164.457 29.7501 164.405 29.7377 164.357 29.7145C164.307 29.6927 164.263 29.6597 164.227 29.618C164.192 29.5763 164.166 29.5271 164.153 29.474C164.153 29.4157 162.608 23.0611 168.46 19.5777C168.508 19.5564 168.56 19.5454 168.613 19.5454C168.666 19.5454 168.718 19.5564 168.766 19.5777C168.817 19.5962 168.864 19.6261 168.902 19.6653C168.939 19.7044 168.968 19.7518 168.985 19.8036C168.985 19.8692 171.295 26.4935 164.671 29.7437C164.618 29.7561 164.564 29.7586 164.51 29.7509ZM168.431 20.4595C167.08 21.3565 166.018 22.6248 165.371 24.1116C164.725 25.5985 164.522 27.2405 164.787 28.84C166.277 28.0882 167.457 26.8386 168.123 25.308C168.788 23.7773 168.897 22.062 168.431 20.4595Z" fill="#771010"/>
<path d="M165.29 39.2684C156.997 38.6999 156.545 30.8077 156.545 30.7275C156.541 30.6744 156.55 30.6211 156.57 30.5719C156.59 30.5226 156.622 30.4787 156.661 30.4433C156.701 30.4061 156.748 30.3788 156.8 30.3636C156.852 30.3484 156.907 30.3458 156.96 30.3558C164.546 31.4927 165.661 38.7801 165.669 38.853C165.677 38.9067 165.673 38.9617 165.657 39.0136C165.64 39.0655 165.612 39.1128 165.574 39.1518C165.539 39.1915 165.495 39.2227 165.445 39.2429C165.396 39.2631 165.343 39.2718 165.29 39.2684ZM157.274 31.1502C157.458 33.0697 158.317 34.8617 159.698 36.2079C161.079 37.5541 162.892 38.3673 164.816 38.5032C164.429 36.6717 163.508 34.9958 162.17 33.6871C160.831 32.3784 159.135 31.4957 157.295 31.1502H157.274Z" fill="#771010"/>
<path d="M165.588 39.1374C165.506 39.1363 165.427 39.1081 165.363 39.0572C165.322 39.0228 165.289 38.9805 165.265 38.9329C165.241 38.8853 165.227 38.8334 165.224 38.7803C165.224 38.7001 165.224 31.3325 172.511 29.0224C172.563 29.0078 172.616 29.0041 172.669 29.0116C172.722 29.0192 172.773 29.0377 172.818 29.0661C172.864 29.095 172.903 29.1346 172.93 29.1815C172.958 29.2284 172.975 29.2813 172.978 29.3358C172.978 29.4086 173.78 37.279 165.69 39.1301L165.588 39.1374ZM172.286 29.8677C170.517 30.491 168.974 31.6248 167.851 33.1257C166.727 34.6267 166.074 36.4272 165.975 38.2993C167.855 37.8695 169.522 36.7859 170.677 35.2417C171.833 33.6975 172.403 31.793 172.286 29.8677Z" fill="#771010"/>
<path d="M160.728 62.712C160.664 62.7098 160.602 62.6923 160.546 62.661C160.463 62.611 160.402 62.5303 160.378 62.4363C160.353 62.3424 160.367 62.2425 160.415 62.1582C162.178 59.1558 166.558 45.7906 164.292 31.602C162.105 17.7996 154.301 6.33643 154.228 6.21983C154.186 6.14076 154.176 6.04932 154.197 5.96282C154.219 5.87632 154.272 5.80078 154.345 5.75049C154.419 5.7002 154.508 5.67866 154.597 5.68994C154.685 5.70123 154.767 5.74457 154.825 5.81174C154.905 5.92834 162.783 17.5226 165.028 31.4854C167.33 45.8708 162.841 59.4618 161.056 62.5299C161.023 62.5871 160.975 62.6343 160.917 62.6664C160.86 62.6985 160.794 62.7143 160.728 62.712Z" fill="#771010"/>
<path d="M18.4735 6.38033C18.512 6.38799 18.5516 6.38799 18.5901 6.38033C23.1593 4.82082 22.2338 0.324476 22.2338 0.280751C22.2199 0.228084 22.1953 0.178866 22.1614 0.136217C22.1275 0.0935673 22.0852 0.0584061 22.037 0.03297C21.989 0.0112395 21.9368 0 21.884 0C21.8312 0 21.7791 0.0112395 21.731 0.03297C20.5722 0.53809 19.6013 1.39438 18.9554 2.48096C18.3095 3.56754 18.0211 4.82954 18.131 6.08883C18.1356 6.14285 18.1533 6.19495 18.1825 6.24064C18.2117 6.28634 18.2515 6.32426 18.2986 6.35118C18.3527 6.37794 18.4136 6.38808 18.4735 6.38033ZM21.5706 0.885599C21.6827 1.85041 21.4735 2.82526 20.9755 3.65919C20.4776 4.49311 19.7185 5.13959 18.816 5.49855C18.8055 4.55048 19.0572 3.61796 19.5433 2.80393C20.0294 1.9899 20.731 1.32603 21.5706 0.885599Z" fill="#771010"/>
<path d="M17.8177 10.7962C21.3667 10.7962 22.8314 7.46587 22.846 7.42943C22.8675 7.37998 22.8785 7.32665 22.8785 7.27274C22.8785 7.21884 22.8675 7.16551 22.846 7.11607C22.8201 7.06978 22.7846 7.02957 22.7419 6.99814C22.6991 6.96672 22.6501 6.94481 22.5982 6.93388C21.2735 6.65291 19.894 6.79509 18.6544 7.34034C17.4148 7.88559 16.3778 8.80639 15.6897 9.97274C15.6664 10.0217 15.6543 10.0752 15.6543 10.1294C15.6543 10.1836 15.6664 10.2372 15.6897 10.2861C15.7108 10.3362 15.7426 10.3812 15.7829 10.4177C15.8232 10.4542 15.871 10.4814 15.9229 10.4974C16.5367 10.6883 17.175 10.789 17.8177 10.7962ZM21.9569 7.59704C21.4539 8.53559 20.6507 9.2783 19.6756 9.70635C18.7006 10.1344 17.6102 10.2231 16.5788 9.95817C17.1661 9.10245 17.9809 8.42792 18.9312 8.0107C19.8815 7.59349 20.9295 7.45022 21.9569 7.59704Z" fill="#771010"/>
<path d="M15.8574 10.3736C15.8935 10.3805 15.9306 10.3805 15.9667 10.3736C16.0183 10.3585 16.0656 10.3316 16.1048 10.2949C16.1441 10.2582 16.1741 10.2127 16.1926 10.1622C16.655 8.88131 16.7011 7.48705 16.3242 6.17839C15.9473 4.86974 15.1667 3.71356 14.0938 2.87481C14.0508 2.84217 14.0011 2.81931 13.9483 2.80782C13.8955 2.79633 13.8409 2.79648 13.7882 2.80828C13.7354 2.82007 13.6859 2.84321 13.643 2.8761C13.6002 2.90898 13.565 2.95082 13.54 2.99869C13.54 3.04242 11.3537 7.45131 15.6533 10.2861C15.7103 10.3362 15.7818 10.3668 15.8574 10.3736ZM14.0136 3.77844C14.7861 4.47202 15.3496 5.36753 15.6406 6.36408C15.9316 7.36063 15.9385 8.41864 15.6606 9.41892C14.7943 8.7988 14.1612 7.90591 13.8626 6.88324C13.564 5.86057 13.6172 4.76728 14.0136 3.77844Z" fill="#771010"/>
<path d="M15.5001 16.3782C19.6102 16.3782 21.3301 12.5304 21.3301 12.4794C21.3518 12.4313 21.363 12.3791 21.363 12.3263C21.363 12.2736 21.3518 12.2214 21.3301 12.1733C21.3067 12.1244 21.2721 12.0817 21.229 12.0487C21.1859 12.0158 21.1357 11.9936 21.0823 11.9838C15.6896 10.8397 13.1026 15.4599 13.0661 15.5037C13.0428 15.5526 13.0307 15.6061 13.0307 15.6603C13.0307 15.7146 13.0428 15.7681 13.0661 15.817C13.0863 15.8677 13.1178 15.9131 13.1582 15.9498C13.1986 15.9864 13.2469 16.0133 13.2993 16.0284C14.0125 16.2493 14.7536 16.3671 15.5001 16.3782ZM20.4483 12.6106C19.8511 13.7529 18.8825 14.6576 17.7021 15.1756C16.5218 15.6935 15.2002 15.7938 13.9552 15.4599C14.6506 14.4127 15.6323 13.5873 16.7835 13.0821C17.9346 12.577 19.2067 12.4133 20.4483 12.6106Z" fill="#771010"/>
<path d="M13.2118 15.8828H13.3211C13.3733 15.8651 13.4212 15.8365 13.4614 15.7988C13.5016 15.7611 13.5333 15.7152 13.5543 15.6642C13.5543 15.6132 15.4563 10.665 11.113 7.26178C11.0696 7.22968 11.0198 7.20722 10.9671 7.19591C10.9143 7.1846 10.8597 7.1847 10.8069 7.1962C10.7551 7.20748 10.7065 7.2304 10.6649 7.26323C10.6232 7.29605 10.5895 7.33793 10.5664 7.38568C10.5664 7.43669 8.01585 12.5379 13.015 15.8391C13.0752 15.8719 13.1434 15.887 13.2118 15.8828ZM11.0256 8.12899C11.9734 8.95435 12.6641 10.0347 13.0155 11.2413C13.3669 12.448 13.3642 13.7303 13.0077 14.9355C11.9511 14.1967 11.1791 13.1187 10.8198 11.8805C10.4605 10.6424 10.5357 9.31854 11.0328 8.12899H11.0256Z" fill="#771010"/>
<path d="M13.2336 22.6025C17.9632 22.6025 19.9089 18.179 19.9308 18.128C19.9541 18.0791 19.9662 18.0256 19.9662 17.9714C19.9662 17.9171 19.9541 17.8636 19.9308 17.8147C19.9057 17.7678 19.8704 17.7271 19.8275 17.6955C19.7847 17.664 19.7353 17.6425 19.683 17.6325C13.4741 16.3135 10.5081 21.626 10.479 21.6843C10.4512 21.7309 10.4347 21.7832 10.4306 21.8373C10.4265 21.8913 10.4351 21.9456 10.4556 21.9957C10.4761 22.0459 10.508 22.0906 10.5487 22.1264C10.5894 22.1621 10.6379 22.1879 10.6903 22.2017C11.5137 22.4601 12.3707 22.5951 13.2336 22.6025ZM19.0636 18.2301C18.3696 19.6 17.2212 20.6863 15.8148 21.3031C14.4084 21.9199 12.8314 22.0289 11.3535 21.6114C12.1742 20.3657 13.339 19.3851 14.7064 18.7887C16.0738 18.1923 17.5849 18.0059 19.0563 18.2519L19.0636 18.2301Z" fill="#771010"/>
<path d="M10.5885 22.0339C10.6246 22.0408 10.6617 22.0408 10.6978 22.0339C10.7494 22.0189 10.7968 21.992 10.836 21.9552C10.8753 21.9185 10.9053 21.8731 10.9238 21.8226C10.9238 21.7643 13.11 16.0728 8.11808 12.1595C8.0766 12.1263 8.02836 12.1026 7.97675 12.09C7.92514 12.0774 7.8714 12.0762 7.8193 12.0866C7.76606 12.0991 7.71626 12.1233 7.67343 12.1573C7.6306 12.1913 7.5958 12.2343 7.57153 12.2834C7.57153 12.3416 4.65654 18.2008 10.3845 21.9902C10.4466 22.0248 10.5177 22.04 10.5885 22.0339ZM8.03791 13.0121C9.1737 13.9827 10.0015 15.2638 10.4196 16.6981C10.8377 18.1325 10.828 19.6577 10.3918 21.0866C9.12308 20.2232 8.19436 18.9453 7.76488 17.472C7.3354 15.9988 7.43192 14.422 8.03791 13.0121Z" fill="#771010"/>
<path d="M10.3408 30.0643C16.2582 30.0643 17.9344 24.3873 17.9489 24.3218C17.9646 24.2703 17.9681 24.2158 17.9592 24.1628C17.9504 24.1097 17.9294 24.0593 17.8979 24.0157C17.8666 23.9723 17.8264 23.9361 17.7798 23.9097C17.7333 23.8833 17.6816 23.8673 17.6283 23.8627C10.851 23.3088 8.40969 29.372 8.38782 29.4303C8.36736 29.4803 8.35851 29.5343 8.36196 29.5882C8.3654 29.6422 8.38104 29.6946 8.4077 29.7416C8.43437 29.7886 8.47138 29.829 8.5159 29.8596C8.56042 29.8903 8.61131 29.9104 8.66475 29.9185C9.21831 30.0146 9.77902 30.0633 10.3408 30.0643ZM17.0963 24.5622C16.5454 26.1395 15.4594 27.4741 14.027 28.3341C12.5946 29.194 10.9062 29.5252 9.25503 29.2699C9.96032 27.8059 11.0785 26.5801 12.4717 25.7436C13.865 24.9071 15.4726 24.4965 17.0963 24.5622Z" fill="#771010"/>
<path d="M8.48975 29.7509C8.54281 29.7501 8.59503 29.7377 8.64278 29.7145C8.69294 29.6927 8.73742 29.6597 8.77279 29.618C8.80817 29.5763 8.8335 29.5271 8.84683 29.474C8.84683 29.4157 10.3918 23.0611 4.53995 19.5777C4.49174 19.5564 4.43962 19.5454 4.38692 19.5454C4.33422 19.5454 4.28208 19.5564 4.23387 19.5777C4.18261 19.5962 4.13626 19.6261 4.09837 19.6653C4.06047 19.7044 4.03204 19.7518 4.01526 19.8036C4.01526 19.8692 1.70515 26.4935 8.32943 29.7437C8.38194 29.7561 8.43633 29.7586 8.48975 29.7509ZM4.56911 20.4595C5.91967 21.3565 6.98216 22.6248 7.62862 24.1116C8.27508 25.5985 8.47796 27.2405 8.21283 28.84C6.72269 28.0882 5.54258 26.8386 4.87708 25.308C4.21158 23.7773 4.10264 22.062 4.56911 20.4595Z" fill="#771010"/>
<path d="M7.71032 39.2684C16.0034 38.6999 16.4552 30.8077 16.4552 30.7275C16.4587 30.6744 16.45 30.6211 16.4298 30.5719C16.4096 30.5226 16.3784 30.4787 16.3386 30.4433C16.2993 30.4061 16.2517 30.3788 16.1998 30.3636C16.1478 30.3484 16.093 30.3458 16.0399 30.3558C8.45364 31.4927 7.33865 38.7801 7.33136 38.853C7.32283 38.9067 7.32695 38.9617 7.3434 39.0136C7.35984 39.0655 7.38816 39.1128 7.4261 39.1518C7.46148 39.1915 7.50548 39.2227 7.55474 39.2429C7.60399 39.2631 7.6572 39.2718 7.71032 39.2684ZM15.7265 31.1502C15.5417 33.0697 14.6826 34.8617 13.3018 36.2079C11.9209 37.5541 10.1077 38.3673 8.184 38.5032C8.57087 36.6717 9.49167 34.9958 10.8302 33.6871C12.1687 32.3784 13.8649 31.4957 15.7046 31.1502H15.7265Z" fill="#771010"/>
<path d="M7.41145 39.1374C7.49354 39.1363 7.57297 39.1081 7.63735 39.0572C7.67796 39.0228 7.71117 38.9805 7.73496 38.9329C7.75876 38.8853 7.77266 38.8334 7.77582 38.7803C7.77582 38.7001 7.77582 31.3325 0.488382 29.0224C0.437157 29.0078 0.38342 29.0041 0.330681 29.0116C0.277943 29.0192 0.227377 29.0377 0.1823 29.0661C0.136031 29.095 0.0973434 29.1346 0.0694566 29.1815C0.0415692 29.2284 0.0252886 29.2813 0.021975 29.3358C0.021975 29.4086 -0.779643 37.279 7.30941 39.1301L7.41145 39.1374ZM0.714291 29.8677C2.48245 30.491 4.02594 31.6248 5.14936 33.1257C6.27277 34.6267 6.92561 36.4272 7.02521 38.2993C5.14487 37.8695 3.47824 36.7859 2.32243 35.2417C1.16661 33.6975 0.596713 31.793 0.714291 29.8677Z" fill="#771010"/>
<path d="M12.2719 62.712C12.3358 62.7098 12.3983 62.6923 12.4541 62.661C12.5373 62.611 12.5976 62.5303 12.6221 62.4363C12.6466 62.3424 12.6334 62.2425 12.5852 62.1582C10.8217 59.1558 6.44192 45.7906 8.70831 31.602C10.8945 17.7996 18.6994 6.33643 18.7723 6.21983C18.8135 6.14076 18.8243 6.04932 18.8026 5.96282C18.7809 5.87632 18.7283 5.80078 18.6547 5.75049C18.581 5.7002 18.4915 5.67866 18.403 5.68994C18.3146 5.70123 18.2333 5.74457 18.1747 5.81174C18.0945 5.92834 10.2168 17.5226 7.97227 31.4854C5.66944 45.8708 10.1585 59.4618 11.9439 62.5299C11.9769 62.5871 12.0249 62.6343 12.0826 62.6664C12.1404 62.6985 12.2058 62.7143 12.2719 62.712Z" fill="#771010"/>
<path d="M43.9452 29.6567L43.8538 30.9825C43.8538 31.8055 43.9909 32.3998 44.2652 32.7656C44.57 33.1313 45.1949 33.3142 46.1397 33.3142V34H39.7848V33.3142H42.025V16.9468H33.6584V29.6567L33.6127 30.0682C33.6127 31.4093 33.7651 32.2932 34.0699 32.7199C34.3747 33.1161 35.1976 33.3142 36.5387 33.3142V34H29.5437V33.3142H31.7382V11.1862C31.7382 10.3937 31.601 9.86033 31.3267 9.58601C31.0524 9.3117 30.4581 9.17454 29.5437 9.17454V8.53447H35.9444V9.17454H33.6584V16.261H42.025V11.6891C42.025 10.6223 41.9336 9.967 41.7507 9.72317C41.4764 9.35742 40.8211 9.17454 39.7848 9.17454V8.53447H46.1397V9.17454H43.9452V29.6567ZM49.963 22.3874L63.4044 22.3416C62.8253 20.9701 61.9109 19.9185 60.6612 19.187C59.4116 18.425 58.0857 18.044 56.6837 18.044C55.1902 18.044 53.8339 18.4098 52.6147 19.1413C51.426 19.8728 50.5421 20.9548 49.963 22.3874ZM65.1417 22.9817H49.6887C49.5667 23.4389 49.4905 23.7742 49.4601 23.9875C49.3077 24.6276 49.2315 25.1762 49.2315 25.6334C49.2315 27.8889 50.0544 29.7481 51.7003 31.2111C53.2547 32.5827 55.0987 33.2685 57.2323 33.2685C58.8782 33.2685 60.3869 32.8113 61.7585 31.8969C63.2825 30.8911 64.3797 29.4738 65.0503 27.645L65.5532 27.7822C64.9131 29.8853 63.7092 31.5312 61.9414 32.7199C60.2955 33.8171 58.482 34.3658 56.5008 34.3658C54.2148 34.3658 52.2946 33.6952 50.7402 32.3541C49.0029 30.8606 48.1342 28.849 48.1342 26.3192L48.0428 26.2278C48.0428 23.4846 49.0638 21.2291 51.1059 19.4613C52.9957 17.8154 55.1749 16.9925 57.6438 16.9925C59.4725 16.9925 61.0422 17.4649 62.3528 18.4098C63.8159 19.4766 64.7455 21.0005 65.1417 22.9817ZM70.5233 31.8512C70.5233 32.4913 70.63 32.918 70.8434 33.1313C71.0872 33.3142 71.453 33.4057 71.9406 33.4057L72.7636 33.3142V34H66.9115V33.3142H68.9232V8.58019L67.3687 10.5004L66.9115 10.1346L70.8434 5.69989L71.2091 6.06564L70.5233 6.88858V31.8512ZM76.4836 22.3874L89.925 22.3416C89.3459 20.9701 88.4315 19.9185 87.1819 19.187C85.9322 18.425 84.6064 18.044 83.2043 18.044C81.7108 18.044 80.3545 18.4098 79.1353 19.1413C77.9466 19.8728 77.0627 20.9548 76.4836 22.3874ZM91.6623 22.9817H76.2093C76.0874 23.4389 76.0112 23.7742 75.9807 23.9875C75.8283 24.6276 75.7521 25.1762 75.7521 25.6334C75.7521 27.8889 76.575 29.7481 78.2209 31.2111C79.7754 32.5827 81.6194 33.2685 83.7529 33.2685C85.3988 33.2685 86.9076 32.8113 88.2791 31.8969C89.8031 30.8911 90.9004 29.4738 91.5709 27.645L92.0738 27.7822C91.4338 29.8853 90.2298 31.5312 88.462 32.7199C86.8161 33.8171 85.0026 34.3658 83.0214 34.3658C80.7355 34.3658 78.8153 33.6952 77.2608 32.3541C75.5235 30.8606 74.6548 28.849 74.6548 26.3192L74.5634 26.2278C74.5634 23.4846 75.5845 21.2291 77.6266 19.4613C79.5163 17.8154 81.6956 16.9925 84.1644 16.9925C85.9932 16.9925 87.5629 17.4649 88.8735 18.4098C90.3365 19.4766 91.2661 21.0005 91.6623 22.9817ZM103.993 22.4788C103.993 21.1987 103.795 20.2081 103.399 19.5071C102.881 18.6231 102.043 18.1812 100.884 18.1812H100.519C99.4214 18.1812 98.5679 18.6079 97.9584 19.4613C97.3488 20.3148 97.044 21.3206 97.044 22.4788V31.8512C97.044 32.5522 97.1659 32.9789 97.4097 33.1313C97.6536 33.2533 98.1717 33.3142 98.9642 33.3142V34H93.7522V33.3142H95.5352V19.5985L93.8894 21.4273L93.4322 21.0615L97.364 16.7182L97.8212 16.9925L97.044 17.9069V19.5985C98.1717 17.9221 99.6347 17.0839 101.433 17.0839H102.165C103.201 17.2059 103.993 17.6478 104.542 18.4098C105.212 19.3547 105.548 20.9091 105.548 23.0731V31.8512C105.548 32.5217 105.67 32.9332 105.913 33.0856C106.157 33.238 106.66 33.3142 107.422 33.3142V34H102.759V33.3142H103.993V22.4788ZM120.312 31.8512C120.312 32.4608 120.419 32.8723 120.632 33.0856C120.846 33.299 121.181 33.4057 121.638 33.4057L122.69 33.3142V34H118.849V32.4456C117.508 33.6342 115.999 34.2286 114.323 34.2286C113.195 34.2286 112.159 33.8628 111.214 33.1313C110.269 32.3998 109.66 31.3788 109.385 30.0682L109.248 28.8337C109.248 27.5536 109.629 26.3954 110.391 25.3591C111.184 24.2923 112.205 23.6065 113.454 23.3017C113.972 23.1493 114.445 23.0731 114.872 23.0731C115.481 23.0731 116.121 23.1951 116.792 23.4389C117.493 23.6522 118.179 23.9418 118.849 24.3076V23.7132C118.849 21.9454 118.697 20.65 118.392 19.8271C117.874 18.4555 116.898 17.7697 115.466 17.7697H114.872C113.5 17.7697 112.433 18.3793 111.671 19.5985C111.031 20.6348 110.711 21.8844 110.711 23.3475H110.345V16.2153H110.803V19.3699C111.443 18.6689 112.159 18.1202 112.951 17.724C113.774 17.2973 114.628 17.0839 115.512 17.0839L117.02 17.2211C118.483 17.6173 119.443 18.5317 119.901 19.9642C120.175 20.8177 120.312 22.2197 120.312 24.1704V31.8512ZM118.986 30.2968V30.0224C118.986 28.2242 118.849 26.944 118.575 26.182C118.118 24.8714 117.173 24.079 115.74 23.8046L114.78 23.7132C113.561 23.7132 112.57 24.2161 111.808 25.2219C111.046 26.1973 110.665 27.3707 110.665 28.7423L110.711 29.0623C110.711 30.4339 111.153 31.5159 112.037 32.3084C112.921 33.1009 113.942 33.4971 115.1 33.4971C115.984 33.4971 116.807 33.2075 117.569 32.6284C118.331 32.0493 118.803 31.2721 118.986 30.2968ZM142.155 22.5702H141.698C141.698 20.6805 141.409 19.4004 140.83 18.7298C140.251 18.0288 139.458 17.6783 138.452 17.6783H138.041C137.309 17.6783 136.654 17.9221 136.075 18.4098C135.496 18.8975 135.206 19.4918 135.206 20.1928L135.343 21.0158C135.557 21.6558 136.319 22.2654 137.629 22.8445C141.104 24.399 142.978 25.3134 143.253 25.5877C143.649 25.9839 143.939 26.4564 144.121 27.005C144.335 27.5231 144.441 28.087 144.441 28.6966C144.441 29.6719 144.167 30.6473 143.619 31.6226C143.07 32.5675 142.384 33.3142 141.561 33.8628C140.22 34.6553 138.666 35.0515 136.898 35.0515C135.709 35.0515 134.581 34.8229 133.515 34.3658C132.478 33.939 131.671 33.299 131.091 32.4456C130.543 31.5921 130.269 30.6777 130.269 29.7024C130.269 28.6966 130.573 27.7822 131.183 26.9593C131.793 26.1363 132.6 25.6334 133.606 25.4505H134.2C135.023 25.4505 135.709 25.7096 136.258 26.2278C136.806 26.7459 137.081 27.3403 137.081 28.0108C137.081 28.6204 136.852 29.1538 136.395 29.611C135.938 30.0682 135.252 30.2968 134.338 30.2968V30.0224C135.313 29.6567 135.801 29.0928 135.801 28.3308C135.801 27.8432 135.587 27.386 135.16 26.9593C134.734 26.5325 134.231 26.3192 133.652 26.3192C133.347 26.3192 133.073 26.3649 132.829 26.4564C132.585 26.5173 132.341 26.6697 132.097 26.9135C131.457 27.4622 131.137 28.1784 131.137 29.0623C131.137 29.7024 131.335 30.373 131.732 31.074C132.158 31.775 132.631 32.3541 133.149 32.8113C133.697 33.2685 134.353 33.619 135.115 33.8628C135.877 34.1067 136.669 34.2286 137.492 34.2286C138.925 34.2286 140.129 33.8781 141.104 33.1771C141.683 32.7808 142.14 32.2322 142.476 31.5312C142.841 30.8301 143.024 30.0986 143.024 29.3367C143.024 28.6356 142.887 28.026 142.613 27.5079C142.369 26.9593 141.942 26.5173 141.333 26.182C140.967 25.9687 140.037 25.6029 138.544 25.0848C136.319 24.2923 134.886 23.4237 134.246 22.4788C133.85 21.9302 133.652 21.3358 133.652 20.6957C133.652 19.9033 133.941 19.1718 134.52 18.5012C135.1 17.8002 135.816 17.3583 136.669 17.1754L137.949 16.9925C138.467 16.9925 139.016 17.0687 139.595 17.2211C140.174 17.3735 140.875 17.6021 141.698 17.9069V15.7581H142.155V22.5702Z" fill="#3F3F3F"/>
<path d="M127.487 16.9925H126.984L125.796 8.21444L125.704 7.71153C125.704 7.13242 125.826 6.62951 126.07 6.2028C126.314 5.77609 126.71 5.56273 127.259 5.56273C127.746 5.56273 128.097 5.76085 128.31 6.15708C128.554 6.55331 128.676 6.99526 128.676 7.48293V8.21444L127.487 16.9925Z" fill="#771010"/>
<path d="M49.8387 55.0555C48.6386 55.0555 47.5356 54.7641 46.5298 54.1812C45.5239 53.5868 44.7239 52.7753 44.1295 51.7466C43.5466 50.7065 43.2551 49.5407 43.2551 48.2491C43.2551 47.0033 43.558 45.866 44.1638 44.8373C44.781 43.8086 45.5982 42.9971 46.6155 42.4028C47.6442 41.8084 48.7357 41.5113 49.8901 41.5113C50.6902 41.5113 51.3246 41.5856 51.7932 41.7341C52.2618 41.8713 52.8047 42.117 53.4219 42.4714V43.1057C52.839 42.7057 52.2961 42.4256 51.7932 42.2656C51.3017 42.0942 50.6845 42.0085 49.9416 42.0085C48.81 42.0085 47.7756 42.2999 46.8384 42.8828C45.9126 43.4543 45.1753 44.2258 44.6267 45.1974C44.0895 46.1575 43.8209 47.1919 43.8209 48.3005C43.8209 49.4207 44.0952 50.4608 44.6439 51.4209C45.1925 52.381 45.9183 53.1468 46.8212 53.7183C47.7356 54.2783 48.7186 54.5583 49.7701 54.5583C50.5245 54.5583 51.1817 54.4726 51.7417 54.3012C52.3018 54.1183 52.8619 53.8383 53.4219 53.4611V54.0954C52.8733 54.4269 52.3075 54.6669 51.7246 54.8155C51.1531 54.9755 50.5245 55.0555 49.8387 55.0555ZM59.219 54.9012C58.4874 54.9012 57.8074 54.7184 57.1787 54.3526C56.5501 53.9869 56.0529 53.4954 55.6872 52.8782C55.3214 52.2495 55.1385 51.5752 55.1385 50.8551C55.1385 50.135 55.3214 49.4664 55.6872 48.8492C56.0529 48.2205 56.5501 47.7233 57.1787 47.3576C57.8074 46.9918 58.4874 46.809 59.219 46.809C59.9619 46.809 60.6648 47.009 61.3277 47.409C61.9907 47.7976 62.4536 48.3063 62.7165 48.9349V46.9976H63.2651V54.7126H62.7165V52.7924C62.4079 53.4325 61.9278 53.9469 61.2763 54.3355C60.6362 54.7126 59.9505 54.9012 59.219 54.9012ZM59.2532 54.4212C59.8819 54.4212 60.4648 54.2612 61.002 53.9411C61.5392 53.6097 61.9621 53.1753 62.2707 52.6381C62.5907 52.0895 62.7508 51.4952 62.7508 50.8551C62.7508 50.2265 62.5907 49.6378 62.2707 49.0892C61.9507 48.5406 61.5221 48.1062 60.9849 47.7862C60.4477 47.4547 59.8647 47.289 59.2361 47.289C58.6075 47.289 58.0188 47.4547 57.4702 47.7862C56.933 48.1177 56.4987 48.5577 56.1672 49.1063C55.8472 49.655 55.6872 50.2436 55.6872 50.8722C55.6872 51.5009 55.8472 52.0895 56.1672 52.6381C56.4987 53.1753 56.9387 53.6097 57.4873 53.9411C58.036 54.2612 58.6246 54.4212 59.2532 54.4212ZM68.1894 54.8155C67.3436 54.8155 66.6406 54.5583 66.0806 54.044C65.5319 53.5297 65.2576 52.821 65.2576 51.9181V43.8944H65.8063V46.9976H68.1722V47.4776H65.8063V51.9181C65.8063 52.6724 66.0291 53.2668 66.4749 53.7011C66.9321 54.124 67.5036 54.3355 68.1894 54.3355V54.8155ZM73.3862 54.4383C73.9805 54.4383 74.5463 54.284 75.0835 53.9754C75.6207 53.6668 76.0665 53.2439 76.4208 52.7067V53.5811C75.9979 54.0497 75.535 54.3926 75.0321 54.6098C74.5292 54.8155 73.9577 54.9184 73.3176 54.9184C72.609 54.9184 71.9403 54.7298 71.3117 54.3526C70.6945 53.9754 70.1973 53.4725 69.8201 52.8439C69.4544 52.2152 69.2715 51.5466 69.2715 50.838C69.2715 50.0722 69.4544 49.3864 69.8201 48.7806C70.1859 48.1634 70.6831 47.6833 71.3117 47.3404C71.9518 46.9976 72.6604 46.8261 73.4376 46.8261C74.6263 46.8261 75.6379 47.2947 76.4722 48.232L71.0888 53.5468C71.466 53.8554 71.8318 54.084 72.1861 54.2326C72.5404 54.3698 72.9404 54.4383 73.3862 54.4383ZM69.8201 50.7865C69.8201 51.7352 70.1344 52.5467 70.7631 53.2211L75.7865 48.232C75.4093 47.9005 75.0435 47.6662 74.6892 47.529C74.3349 47.3804 73.912 47.3062 73.4205 47.3062C72.7233 47.3062 72.1004 47.4605 71.5517 47.7691C71.0145 48.0662 70.5916 48.4777 70.283 49.0035C69.9744 49.5292 69.8201 50.1236 69.8201 50.7865ZM78.1871 46.9976H78.7357V48.7806C78.9643 48.2205 79.2958 47.7805 79.7301 47.4605C80.1759 47.1404 80.6788 46.9804 81.2389 46.9804C81.5932 46.9804 81.9532 47.0547 82.319 47.2033V47.8376C81.9875 47.5862 81.616 47.4605 81.2046 47.4605C80.7931 47.4605 80.393 47.5862 80.0044 47.8376C79.6273 48.0891 79.3187 48.4263 79.0786 48.8492C78.85 49.2721 78.7357 49.7236 78.7357 50.2036V54.7126H78.1871V46.9976ZM84.3474 45.2317C84.1874 45.2317 84.0445 45.1745 83.9188 45.0602C83.8045 44.9459 83.7473 44.803 83.7473 44.6316C83.7473 44.4716 83.8045 44.3344 83.9188 44.2201C84.0445 44.1058 84.1874 44.0487 84.3474 44.0487C84.5074 44.0487 84.6446 44.1058 84.7589 44.2201C84.8846 44.3344 84.9475 44.4716 84.9475 44.6316C84.9475 44.803 84.8846 44.9459 84.7589 45.0602C84.6446 45.1745 84.5074 45.2317 84.3474 45.2317ZM84.0731 46.9976H84.6217V54.7126H84.0731V46.9976ZM87.178 46.9976H87.7266V48.712C87.9781 48.1405 88.4067 47.6833 89.0125 47.3404C89.6183 46.9861 90.2869 46.809 91.0184 46.809C91.9671 46.809 92.7157 47.1118 93.2644 47.7176C93.8244 48.312 94.1044 49.1463 94.1044 50.2207V54.7126H93.5558V50.2207C93.5558 49.2949 93.3272 48.5749 92.87 48.0605C92.4243 47.5462 91.7956 47.289 90.9841 47.289C90.3898 47.289 89.8411 47.4262 89.3382 47.7005C88.8467 47.9634 88.4524 48.3291 88.1552 48.7977C87.8695 49.2664 87.7266 49.7978 87.7266 50.3922V54.7126H87.178V46.9976ZM99.9897 58.2787C99.3382 58.2787 98.7039 58.1301 98.0867 57.833C97.4695 57.5358 96.9894 57.1472 96.6465 56.6671V55.8785C96.9437 56.4271 97.4066 56.8843 98.0353 57.2501C98.6753 57.6158 99.3268 57.7987 99.9897 57.7987C101.087 57.7987 101.933 57.4729 102.527 56.8214C103.122 56.1814 103.419 55.2384 103.419 53.9926V52.8439C103.11 53.4611 102.624 53.964 101.961 54.3526C101.31 54.7298 100.624 54.9184 99.904 54.9184C99.1725 54.9184 98.4924 54.7355 97.8638 54.3698C97.2352 54.004 96.738 53.5125 96.3722 52.8953C96.0065 52.2667 95.8236 51.5923 95.8236 50.8722C95.8236 50.1522 96.0065 49.4835 96.3722 48.8663C96.738 48.2377 97.2352 47.7405 97.8638 47.3747C98.4924 47.009 99.1725 46.8261 99.904 46.8261C100.658 46.8261 101.356 47.0147 101.996 47.3919C102.636 47.7691 103.11 48.2777 103.419 48.9178V46.9976H103.967V53.9926C103.967 55.3984 103.624 56.4614 102.939 57.1815C102.264 57.913 101.281 58.2787 99.9897 58.2787ZM99.9383 54.4383C100.567 54.4383 101.15 54.2783 101.687 53.9583C102.224 53.6268 102.647 53.1925 102.956 52.6553C103.276 52.1067 103.436 51.5123 103.436 50.8722C103.436 50.2322 103.276 49.6435 102.956 49.1063C102.647 48.5577 102.224 48.1234 101.687 47.8034C101.15 47.4719 100.567 47.3062 99.9383 47.3062C99.2982 47.3062 98.7039 47.4719 98.1553 47.8034C97.6181 48.1234 97.1837 48.5577 96.8523 49.1063C96.5322 49.6435 96.3722 50.2322 96.3722 50.8722C96.3722 51.5123 96.5322 52.1067 96.8523 52.6553C97.1837 53.1925 97.6181 53.6268 98.1553 53.9583C98.7039 54.2783 99.2982 54.4383 99.9383 54.4383ZM116.207 55.0555C115.007 55.0555 113.904 54.7641 112.898 54.1812C111.893 53.5868 111.092 52.7753 110.498 51.7466C109.915 50.7065 109.624 49.5407 109.624 48.2491C109.624 47.0033 109.927 45.866 110.532 44.8373C111.15 43.8086 111.967 42.9971 112.984 42.4028C114.013 41.8084 115.104 41.5113 116.259 41.5113C117.059 41.5113 117.693 41.5856 118.162 41.7341C118.63 41.8713 119.173 42.117 119.79 42.4714V43.1057C119.208 42.7057 118.665 42.4256 118.162 42.2656C117.67 42.0942 117.053 42.0085 116.31 42.0085C115.179 42.0085 114.144 42.2999 113.207 42.8828C112.281 43.4543 111.544 44.2258 110.995 45.1974C110.458 46.1575 110.189 47.1919 110.189 48.3005C110.189 49.4207 110.464 50.4608 111.012 51.4209C111.561 52.381 112.287 53.1468 113.19 53.7183C114.104 54.2783 115.087 54.5583 116.139 54.5583C116.893 54.5583 117.55 54.4726 118.11 54.3012C118.67 54.1183 119.23 53.8383 119.79 53.4611V54.0954C119.242 54.4269 118.676 54.6669 118.093 54.8155C117.522 54.9755 116.893 55.0555 116.207 55.0555ZM125.287 54.987C124.51 54.987 123.807 54.7984 123.178 54.4212C122.55 54.0326 122.058 53.524 121.704 52.8953C121.349 52.2552 121.172 51.5637 121.172 50.8208C121.172 50.0893 121.349 49.4092 121.704 48.7806C122.069 48.152 122.561 47.6548 123.178 47.289C123.807 46.9118 124.504 46.7232 125.27 46.7232C126.024 46.7232 126.71 46.9118 127.327 47.289C127.956 47.6548 128.447 48.152 128.802 48.7806C129.156 49.4092 129.333 50.0893 129.333 50.8208C129.333 51.5866 129.162 52.2895 128.819 52.9296C128.476 53.5582 127.996 54.0611 127.379 54.4383C126.773 54.8041 126.076 54.987 125.287 54.987ZM125.287 54.5069C125.938 54.5069 126.533 54.3412 127.07 54.0097C127.607 53.6783 128.024 53.2382 128.322 52.6896C128.63 52.1295 128.784 51.518 128.784 50.8551C128.784 50.2036 128.63 49.5978 128.322 49.0378C128.013 48.4777 127.59 48.0319 127.053 47.7005C126.516 47.369 125.921 47.2033 125.27 47.2033C124.618 47.2033 124.018 47.3747 123.47 47.7176C122.932 48.0491 122.504 48.4949 122.184 49.0549C121.875 49.615 121.721 50.2207 121.721 50.8722C121.721 51.5237 121.875 52.1295 122.184 52.6896C122.504 53.2382 122.932 53.6783 123.47 54.0097C124.018 54.3412 124.624 54.5069 125.287 54.5069ZM131.147 54.8669C130.987 54.8669 130.844 54.8098 130.718 54.6955C130.604 54.5812 130.547 54.4383 130.547 54.2669C130.547 54.1069 130.604 53.9697 130.718 53.8554C130.844 53.7411 130.987 53.684 131.147 53.684C131.307 53.684 131.444 53.7411 131.559 53.8554C131.684 53.9697 131.747 54.1069 131.747 54.2669C131.747 54.4383 131.684 54.5812 131.559 54.6955C131.444 54.8098 131.307 54.8669 131.147 54.8669Z" fill="#3F3F3F"/>
</svg>
