<svg width="24" height="25" viewBox="0 0 24 25" fill="none" xmlns="http://www.w3.org/2000/svg">
<path d="M6.62 11.1462C8.06 13.9762 10.38 16.2862 13.21 17.7362L15.41 15.5362C15.68 15.2662 16.08 15.1762 16.43 15.2962C17.55 15.6662 18.76 15.8662 20 15.8662C20.55 15.8662 21 16.3162 21 16.8662V20.3562C21 20.9062 20.55 21.3562 20 21.3562C10.61 21.3562 3 13.7462 3 4.3562C3 3.8062 3.45 3.3562 4 3.3562H7.5C8.05 3.3562 8.5 3.8062 8.5 4.3562C8.5 5.6062 8.7 6.8062 9.07 7.9262C9.18 8.2762 9.1 8.6662 8.82 8.9462L6.62 11.1462Z" fill="#3F3F3F"/>
</svg>
